<svg width="257" height="30" viewBox="0 0 257 30" fill="none" xmlns="http://www.w3.org/2000/svg">
<path d="M64.4 15.0001L64.2 15.2001C62.8 16.7001 61.2 17.4001 59.7 17.4001L62.5 12.5001C64.3 9.4001 62.6 6.4001 59.8 6.4001C57.5 6.4001 55.7 7.3001 54 10.3001L52.5 12.9001L51.3 15.0001L51.1 15.2001C48.9 17.7001 46.8 19.7001 45.5 19.7001C44.8 19.7001 44.5 19.2001 45.2 18.1001L51.6 6.9001H54L54.9 5.5001H52.4L55.2 0.600098H52.2L49.4 5.5001H46.7L45.8 6.9001H48.5L42.5 17.3001C41.2 19.5001 42.1 21.6001 44.5 21.6001C46.2 21.6001 48.2 20.3001 50 18.5001C50 22.3001 55.3 23.1001 58.5 19.0001H59.2C61 19.0001 63.8 17.9001 65.3 16.1001C65.3 15.6001 64.8 15.2001 64.4 15.0001ZM58 15.2001H57.9C56.9 15.2001 56.1 16.0001 56.1 17.0001C56.1 17.4001 56.2 17.7001 56.4 18.0001V18.1001C55 20.5001 51.6 20.1001 53.3 16.9001L55.6 13.0001L57 10.6001C59.1 7.0001 62 8.4001 60.2 11.5001L58 15.2001Z" fill="#766458"/>
<path d="M105.9 15.0001L105.7 15.2001C103.5 17.7001 100.8 19.7001 98.7001 19.7001C96.9001 19.7001 95.8001 18.5001 97.1001 16.1001L97.4001 15.6001C99.3001 16.4001 103 16.0001 105.2 12.1001L105.6 11.4001C107.2 8.6001 105.7 6.6001 103.2 6.6001C100.8 6.6001 98.9001 7.9001 97.6001 10.1001L94.7001 15.1001L94.5001 15.3001C92.3001 17.8001 90.2001 19.8001 88.9001 19.8001C88.2001 19.8001 87.9001 19.3001 88.6001 18.2001L92.9001 10.6001C94.2001 8.3001 93.0001 6.7001 91.3001 6.7001C90.0001 6.7001 88.6001 7.4001 87.1001 9.0001L91.9001 0.7001H88.9001L80.6001 15.0001L80.4001 15.2001C78.2001 17.7001 76.1001 19.7001 74.8001 19.7001C74.1001 19.7001 73.8001 19.2001 74.5001 18.1001L80.9001 6.9001H83.3001L84.2001 5.5001H81.7001L84.5001 0.600098H81.5001L78.7001 5.5001H76.0001L75.1001 6.9001H77.8001L71.8001 17.3001C70.5001 19.5001 71.4001 21.6001 73.8001 21.6001C75.0001 21.6001 76.3001 21.0001 77.6001 20.0001L76.8001 21.3001H79.8001L84.3001 13.4001C88.9001 7.6001 90.9001 8.4001 89.7001 10.6001L85.8001 17.4001C84.5001 19.6001 85.4001 21.7001 87.8001 21.7001C89.6001 21.7001 91.6001 20.3001 93.4001 18.5001C93.5001 20.4001 95.1001 21.7001 97.5001 21.7001C100.9 21.7001 104.3 19.1001 106.7 16.2001C106.8 15.6001 106.3 15.2001 105.9 15.0001ZM100.2 10.8001C101.9 7.8001 105 8.3001 103.2 11.4001L102.8 12.1001C101.4 14.5001 99.4001 14.5001 98.3001 14.1001L100.2 10.8001Z" fill="#766458"/>
<path d="M215 15.0001L214.8 15.2001C213.7 16.5001 212.4 17.6001 211.2 18.5001C212.2 15.6001 211.9 11.3001 213.8 7.40009L211.6 6.20009C210.4 7.90009 207.7 11.8001 204.9 15.0001L204.7 15.2001C202.5 17.7001 200.4 19.7001 199.1 19.7001C198.4 19.7001 198.1 19.2001 198.8 18.1001L205.2 6.90009H202.2L196.9 16.2001C194.6 18.3001 192.9 19.4001 192.3 19.2001C191.6 18.9001 192.3 17.8001 192.7 17.1001L198.5 6.90009H195.5L190.8 15.0001L190.6 15.2001C189.2 16.7001 187.6 17.4001 186.1 17.4001L188.9 12.5001C190.7 9.40009 189 6.40009 186.2 6.40009C183.9 6.40009 182.1 7.30009 180.4 10.3001L178.9 12.9001L177.7 15.0001L177.5 15.2001C175.3 17.7001 172.6 19.7001 170.5 19.7001C168.7 19.7001 167.6 18.5001 168.9 16.1001L169.2 15.6001C171.1 16.4001 174.8 16.0001 177 12.1001L177.4 11.4001C179 8.60009 177.5 6.60009 175 6.60009C172.6 6.60009 170.7 7.90009 169.4 10.1001L166.5 15.1001L166.3 15.3001C163.8 18.2001 161.7 20.0001 159.3 21.0001L166 9.50009H164.2C164.2 8.30009 162.9 6.60009 161.1 6.60009C159.5 6.60009 157.2 7.90009 156 10.1001L153.1 15.1001L152.9 15.3001C150.7 17.8001 148.6 19.8001 147.3 19.8001C146.6 19.8001 146.3 19.3001 147 18.2001L150 13.0001C151 11.2001 150.5 10.1001 149.6 8.90009L147.9 6.90009C147.5 6.40009 147.5 5.70009 148.1 5.20009L146.5 3.50009C144.8 5.00009 144.7 6.70009 145.7 8.10009L146 8.40009C144.7 10.3001 142.9 12.8001 140.9 15.1001L140.7 15.3001C139.3 16.8001 137.7 17.5001 136.2 17.5001L139 12.6001C140.8 9.50009 139.1 6.50009 136.3 6.50009C134 6.50009 132.2 7.40009 130.5 10.4001L129 13.0001L127.8 15.1001L127.6 15.3001C125.1 18.2001 123 20.0001 120.6 21.0001L127.3 9.50009H125.5C125.5 8.30009 124.2 6.60009 122.4 6.60009C120.8 6.60009 118.5 7.90009 117.3 10.1001L113.1 17.4001C111.8 19.6001 112.7 21.7001 115.1 21.7001C115.9 21.7001 116.9 21.3001 118 20.7001L117.2 22.1001C113.2 23.3001 110.6 25.0001 110.6 27.2001C110.6 30.1001 115 30.7001 117.2 27.0001L119.5 23.1001C121.9 22.4001 124.2 20.9001 126.7 18.6001C126.7 22.4001 132 23.2001 135.2 19.1001H135.9C137.7 19.1001 140.5 18.0001 142 16.2001C143.4 14.5001 144.6 13.0001 147 9.80009L147.4 10.3001C147.8 10.8001 147.9 11.4001 147.6 12.0001L144.4 17.5001C143.1 19.7001 144 21.8001 146.4 21.8001C147.9 21.8001 149.6 20.8001 151.2 19.4001C151.2 20.8001 152.1 21.8001 153.8 21.8001C154.6 21.8001 155.6 21.4001 156.7 20.8001L156 22.0001C152 23.2001 149.4 24.9001 149.4 27.1001C149.4 30.0001 153.8 30.6001 156 26.9001L158.3 23.0001C160.7 22.2001 163.1 20.8001 165.6 18.4001C165.7 20.3001 167.2 21.6001 169.7 21.6001C172.1 21.6001 174.6 20.2001 176.6 18.4001C176.5 22.3001 181.9 23.1001 185.1 19.0001H185.8C186.7 19.0001 188 18.7001 189.1 18.1001C188.3 20.2001 189 21.6001 190.7 21.6001C192.3 21.6001 194.2 20.1001 195.6 18.7001C195.3 20.3001 196.3 21.6001 198.2 21.6001C200.7 21.6001 203.5 19.0001 206 16.1001C207.7 14.1001 209.2 12.0001 210.3 10.6001C209.1 13.7001 209.8 19.3001 206.9 19.3001C205.9 19.3001 205.5 18.2001 205.5 18.2001L203.6 19.2001C203.6 19.2001 204.1 21.6001 206.9 21.6001C207.2 21.6001 207.4 21.6001 207.7 21.5001H207.8C210.9 21.1001 213.9 18.7001 216.1 16.1001C216 15.6001 215.5 15.1001 215 15.0001ZM172.1 10.8001C173.8 7.80009 176.9 8.30009 175.1 11.4001L174.7 12.1001C173.3 14.5001 171.3 14.5001 170.2 14.1001L172.1 10.8001ZM114.9 26.4001C114.3 27.5001 113.3 27.4001 113.3 26.5001C113.3 25.7001 114 24.8001 116.3 23.9001L114.9 26.4001ZM116.3 19.7001C115.6 19.7001 115.3 19.2001 116 18.1001L120.2 10.8001C121.8 8.00009 125 8.70009 123.5 11.4001L121.2 15.4001C119.4 18.3001 117.5 19.7001 116.3 19.7001ZM134.7 15.2001H134.6C133.6 15.2001 132.8 16.0001 132.8 17.0001C132.8 17.4001 132.9 17.7001 133.1 18.0001V18.1001C131.7 20.5001 128.3 20.1001 130 16.9001L132.3 13.0001L133.7 10.6001C135.8 7.00009 138.7 8.40009 136.9 11.5001L134.7 15.2001ZM153.5 26.4001C152.9 27.5001 151.9 27.4001 151.9 26.5001C151.9 25.7001 152.6 24.8001 154.9 23.9001L153.5 26.4001ZM154.9 19.7001C154.2 19.7001 153.9 19.2001 154.6 18.1001L158.8 10.8001C160.4 8.00009 163.6 8.70009 162.1 11.4001L159.8 15.4001C158 18.3001 156.1 19.7001 154.9 19.7001ZM184.4 15.2001H184.3C183.3 15.2001 182.5 16.0001 182.5 17.0001C182.5 17.4001 182.6 17.7001 182.8 18.0001V18.1001C181.4 20.5001 178 20.1001 179.7 16.9001L182 13.0001L183.4 10.6001C185.5 7.00009 188.4 8.40009 186.6 11.5001L184.4 15.2001Z" fill="#766458"/>
<path d="M29.3 11.8H0.400024V13.8H29.3V11.8Z" fill="#766458"/>
<path d="M256.3 11.8H227.4V13.8H256.3V11.8Z" fill="#766458"/>
</svg>
