<svg width="295" height="80" viewBox="0 0 295 80" fill="none" xmlns="http://www.w3.org/2000/svg">
<path d="M34.1001 17.6999C41.8001 15.0999 42.3001 5.49991 34.8001 5.49991C32.7001 5.49991 30.2001 6.9999 28.5001 9.8999L18.3001 27.5999C17.8001 28.3999 17.4001 29.0999 16.8001 29.7999C14.2001 26.1999 14.9001 20.7999 18.6001 18.3999L17.1001 16.4999C9.10014 21.5999 11.5001 36.1999 24.8001 36.1999C36.1001 36.1999 41.4001 22.5999 34.1001 17.6999ZM24.7001 33.2999C22.4001 33.2999 20.7001 32.7999 19.2001 31.9999C19.9001 31.1999 20.5001 30.2999 21.1001 29.2999L27.5001 18.1999L28.5001 18.2999C37.4001 20.1999 33.9001 33.2999 24.7001 33.2999ZM28.8001 15.9999L31.9001 10.6999C34.7001 5.89992 38.2001 8.6999 36.3001 12.2999C34.8001 15.0999 32.7001 15.8999 28.8001 15.9999Z" fill="white"/>
<path d="M66.2002 29.9999C65.6002 32.1999 66.8002 34.0999 69.3002 34.0999C70.8002 34.0999 72.7002 33.0999 74.6002 31.5999C74.8002 33.0999 76.0002 34.0999 77.9002 34.0999C79.9002 34.0999 82.1002 32.6999 84.3002 30.6999C83.9002 32.6999 84.8002 34.0999 86.7002 34.0999C88.8002 34.0999 91.1002 32.1999 92.9002 30.4999C92.5002 32.4999 93.7002 34.0999 96.1002 34.0999C99.2002 34.0999 102.8 30.6999 106 27.0999C106 26.9999 105.9 26.9999 105.9 26.8999C108 24.4999 109.8 21.8999 111.2 20.0999C109.7 23.9999 110.5 31.0999 106.9 31.0999C105.6 31.0999 105.1 29.6999 105.1 29.6999L102.7 30.8999C102.7 30.8999 103.4 33.9999 106.9 33.9999C107.3 33.9999 107.6 33.9999 108 33.8999H108.1C110.9 33.4999 113.6 31.7999 116 29.6999C116.1 32.1999 118 33.9999 121.1 33.9999C125.4 33.9999 129.7 30.5999 132.8 26.9999C132.5 26.4999 131.9 25.8999 131.4 25.6999L131.1 25.9999C128.4 29.1999 124.9 31.6999 122.2 31.6999C119.9 31.6999 118.5 30.1999 120.2 27.1999L120.6 26.4999C123 27.4999 127.6 26.9999 130.5 22.0999L131 21.1999C133 17.6999 131.1 15.0999 128 15.0999C124.9 15.0999 122.5 16.6999 120.9 19.4999L117.2 25.7999H117.1L116.8 26.0999C115.4 27.6999 113.7 29.1999 112.2 30.1999C113.4 26.5999 113.1 20.9999 115.5 16.1999L112.7 14.6999C111.1 16.8999 107.7 21.7999 104.3 25.7999L104.4 25.8999L104.3 26.0999C101.6 29.2999 98.9002 31.7999 97.2002 31.7999C96.4002 31.7999 95.9002 31.1999 96.8002 29.6999L104.9 15.4999H101.1L94.4002 27.2999C91.5002 29.8999 89.3002 31.3999 88.6002 31.0999C87.7002 30.6999 88.6002 29.2999 89.1002 28.4999L96.5002 15.5999H92.7002L86.7002 25.9999C86.6002 25.8999 86.5002 25.8999 86.4002 25.7999L86.1002 26.0999C83.4002 29.2999 80.7002 31.7999 79.0002 31.7999C78.2002 31.7999 77.7002 31.1999 78.6002 29.6999L84.7002 18.9999H82.5002C82.6002 17.3999 81.0002 15.1999 78.5002 15.1999C76.5002 15.1999 73.6002 16.7999 72.0002 19.5999L68.2002 26.1999C68.0002 25.9999 67.8002 25.8999 67.6002 25.7999L67.3002 26.0999C64.6002 29.2999 61.1002 31.7999 58.4002 31.7999C56.1002 31.7999 54.7002 30.2999 56.4002 27.2999L60.3002 20.4999C62.5002 16.6999 66.4002 17.3999 64.1002 21.2999L63.6002 22.1999H66.7002L67.2002 21.2999C69.2002 17.7999 67.3002 15.1999 64.2002 15.1999C61.1002 15.1999 58.7002 16.7999 57.1002 19.5999L53.3002 26.0999C53.2002 25.9999 53.1002 25.9999 53.0002 25.8999L52.7002 26.1999C50.0002 29.3999 46.5002 31.8999 43.8002 31.8999C41.5002 31.8999 40.1002 30.3999 41.8002 27.3999L42.2002 26.6999C44.6002 27.6999 49.2002 27.1999 52.1002 22.2999L52.6002 21.3999C54.6002 17.8999 52.7002 15.2999 49.6002 15.2999C46.5002 15.2999 44.1002 16.8999 42.5002 19.6999L38.5002 26.4999C36.1002 30.4999 38.2002 34.2999 42.7002 34.2999C46.0002 34.2999 49.4002 32.2999 52.1002 29.6999C52.0002 32.2999 54.0002 34.2999 57.2002 34.2999C60.4002 34.0999 63.5002 32.2999 66.2002 29.9999ZM124.2 20.3999C126.4 16.5999 130.3 17.2999 128 21.1999L127.5 22.0999C125.7 25.1999 123.2 25.0999 121.8 24.5999L124.2 20.3999ZM70.0002 29.6999L75.3002 20.4999C77.3002 16.9999 81.4002 17.8999 79.5002 21.2999L76.5002 26.4999C74.2002 30.0999 71.9002 31.7999 70.4002 31.7999C69.6002 31.6999 69.1002 31.1999 70.0002 29.6999ZM45.8002 20.3999C48.0002 16.5999 51.9002 17.2999 49.6002 21.1999L49.1002 22.0999C47.3002 25.1999 44.8002 25.0999 43.4002 24.5999L45.8002 20.3999Z" fill="white"/>
<path d="M174.4 34.0999C178.7 34.0999 183 30.6999 186.1 27.0999C185.8 26.5999 185.2 25.9999 184.7 25.7999L184.4 26.0999C181.7 29.2999 178.2 31.7999 175.5 31.7999C173.2 31.7999 171.8 30.2999 173.5 27.2999L173.9 26.5999C176.3 27.5999 180.9 27.0999 183.8 22.1999L184.3 21.2999C186.3 17.7999 184.4 15.1999 181.3 15.1999C178.2 15.1999 175.8 16.7999 174.2 19.5999L170.5 25.8999C170.5 25.8999 170.4 25.8999 170.4 25.7999L170.1 26.0999C167.4 29.2999 164.7 31.7999 163 31.7999C162.2 31.7999 161.7 31.1999 162.6 29.6999L168.1 20.0999C169.7 17.1999 168.2 15.0999 166.1 15.0999C164.5 15.0999 162.7 15.9999 160.8 17.9999L166.9 7.49991H163L152.3 25.9999C152.2 25.8999 152 25.7999 151.9 25.6999L151.6 25.9999C148.9 29.1999 146.2 31.6999 144.5 31.6999C143.7 31.6999 143.2 31.0999 144.1 29.5999L152.2 15.3999H155.3L156.4 13.5999H153.3L156.9 7.3999H153.1L149.5 13.5999H146.1L145 15.3999H148.5L140.9 28.5999C139.3 31.3999 140.4 33.9999 143.5 33.9999C145.4 33.9999 147.4 32.7999 149.5 30.9999L148 33.5999H151.8L157.6 23.5999C163.4 16.2999 166 17.1999 164.4 19.9999L159.5 28.5999C157.9 31.3999 159 33.9999 162.1 33.9999C164.4 33.9999 167 32.1999 169.4 29.7999C169.4 32.2999 171.3 34.0999 174.4 34.0999ZM177.5 20.3999C179.7 16.5999 183.6 17.2999 181.3 21.1999L180.8 22.0999C179 25.1999 176.5 25.0999 175.1 24.5999L177.5 20.3999Z" fill="white"/>
<path d="M289.4 25.7999L289.1 26.0999C286.4 29.2999 283.7 31.7999 282 31.7999C281.2 31.7999 280.7 31.1999 281.6 29.6999L294.4 7.49991H290.6L285 17.0999C284.3 15.9999 283.1 15.0999 281.5 15.0999C279.5 15.0999 276.6 16.6999 275 19.4999L271.3 25.8999C271.2 25.8999 271.1 25.7999 271.1 25.7999L270.8 26.0999C268.1 29.2999 265.4 31.7999 263.7 31.7999C262.9 31.7999 262.4 31.1999 263.3 29.6999L268.8 20.0999C270.4 17.1999 268.9 15.0999 266.8 15.0999C265.2 15.0999 263.4 15.9999 261.5 17.8999L262.9 15.3999H259.1L253 25.8999C252.9 25.7999 252.8 25.6999 252.6 25.6999L252.3 25.9999C249.6 29.1999 246.9 31.6999 245.2 31.6999C244.4 31.6999 243.9 31.0999 244.8 29.5999L250.9 18.8999H249C249.1 17.2999 247.5 15.0999 245 15.0999C243 15.0999 240.1 16.6999 238.5 19.4999L234.8 25.7999L234.6 25.9999C231.9 29.1999 229.2 31.6999 227.5 31.6999C226.7 31.6999 226.2 31.0999 227.1 29.5999L230.9 22.9999C232.2 20.6999 231.6 19.3999 230.4 17.8999L228.3 15.2999C227.8 14.5999 227.8 13.7999 228.5 13.0999L226.5 10.8999C224.3 12.7999 224.2 14.9999 225.5 16.6999L225.8 17.0999C224.1 19.4999 221.9 22.6999 219.4 25.5999C219.5 25.6999 219.6 25.7999 219.7 25.8999C216.6 29.4999 213.9 31.7999 210.9 33.0999L215.7 24.8999H212L211.6 25.5999C209.6 29.0999 207.3 31.6999 204.3 31.6999C201.7 31.6999 201.2 29.0999 203.5 25.1999L204.6 23.2999C205.3 23.3999 206 23.4999 206.8 23.4999C220.3 23.4999 226.8 5.3999 214.9 5.3999C212.8 5.3999 210.3 6.8999 208.6 9.7999L202.7 19.9999C200.5 18.7999 199.3 16.6999 199.3 14.5999C199.3 12.7999 200.1 11.0999 201.7 9.7999L200.5 7.59991C197.8 9.49991 196.6 12.0999 196.6 14.6999C196.6 17.6999 198.3 20.5999 201.4 22.1999L200.3 24.1999C197.6 28.7999 198.1 33.8999 203.5 33.8999C205.1 33.8999 206.5 33.3999 207.6 32.6999L206.6 34.3999C201.5 35.9999 198.3 37.9999 198.3 40.8999C198.3 44.4999 203.9 45.2999 206.6 40.5999L209.5 35.5999C213.4 34.3999 217.3 31.6999 221.5 26.7999C221.4 26.6999 221.4 26.5999 221.3 26.3999C223 24.3999 224.4 22.4999 227.3 18.5999L227.8 19.1999C228.3 19.7999 228.5 20.5999 228 21.3999L224 28.3999C222.4 31.1999 223.5 33.7999 226.6 33.7999C228.5 33.7999 230.6 32.5999 232.6 30.7999C232.6 32.4999 233.7 33.7999 235.9 33.7999C237.4 33.7999 239.3 32.7999 241.2 31.2999C241.4 32.7999 242.6 33.7999 244.5 33.7999C246.3 33.7999 248.3 32.6999 250.2 30.9999L248.8 33.3999H252.6L258.4 23.2999C264.2 15.9999 266.8 16.9999 265.1 19.7999L260.2 28.3999C258.6 31.1999 259.7 33.7999 262.8 33.7999C264.8 33.7999 267 32.3999 269.2 30.4999C269 32.3999 270.2 33.7999 272.5 33.7999C274 33.7999 275.9 32.7999 277.8 31.2999C278 32.7999 279.2 33.7999 281.1 33.7999C284.2 33.7999 287.8 30.3999 291 26.7999C290.6 26.5999 289.9 25.9999 289.4 25.7999ZM211.5 11.5999C212.6 9.69991 213.9 8.7999 214.9 8.7999C220.9 8.7999 216.7 21.0999 206.8 21.0999H206L211.5 11.5999ZM203.4 40.1999C202.6 41.5999 201.3 41.3999 201.3 40.3999C201.3 39.3999 202.2 38.2999 205.1 37.1999L203.4 40.1999ZM243.1 26.3999C240.8 29.9999 238.5 31.6999 237 31.6999C236.2 31.6999 235.7 31.0999 236.6 29.5999L241.9 20.3999C243.9 16.8999 248 17.7999 246.1 21.1999L243.1 26.3999ZM279.8 26.1999C277.5 29.9999 275.2 31.6999 273.6 31.6999C272.8 31.6999 272.3 31.0999 273.2 29.5999L278.5 20.3999C280.5 16.8999 284.6 17.7999 282.7 21.1999L279.8 26.1999Z" fill="white"/>
<path d="M162.7 61.7999L162.4 62.0999C159.7 65.2999 157 67.7999 155.3 67.7999C154.5 67.7999 154 67.1999 154.9 65.6999L160.4 56.0999C162 53.1999 160.5 51.0999 158.4 51.0999C156.8 51.0999 155 51.9999 153.1 53.8999L154.5 51.3999H150.7L144.6 61.9999C144.4 61.8999 144.3 61.7999 144.1 61.6999L143.8 61.9999C142.1 63.8999 140 64.7999 138.1 64.7999L141.7 58.5999C144 54.5999 141.9 50.8999 138.3 50.8999C135.4 50.8999 133.1 52.0999 130.9 55.8999L129 59.0999L127.4 61.8999C127.3 61.7999 127.2 61.7999 127.1 61.6999L126.8 61.9999C123.7 65.5999 121 67.8999 118 69.1999L128.4 51.3999H124.6L117.9 63.0999C115 65.7999 112.7 67.2999 112 66.9999C111.1 66.5999 112 65.1999 112.5 64.3999L119.9 51.4999H116.1L110 61.9999C109.9 61.8999 109.8 61.8999 109.7 61.7999L109.4 62.0999C106.7 65.2999 104 67.7999 102.3 67.7999C101.5 67.7999 101 67.1999 101.9 65.6999L107.4 56.0999C109 53.1999 107.5 51.0999 105.4 51.0999C103.8 51.0999 102 51.9999 100.1 53.8999L101.5 51.3999H97.7002L91.6002 61.8999C91.5002 61.7999 91.4002 61.6999 91.2002 61.6999L90.9002 61.9999C88.2002 65.1999 85.5002 67.6999 83.8002 67.6999C83.0002 67.6999 82.5002 67.0999 83.4002 65.5999L89.5002 54.8999H87.3002C87.4002 53.2999 85.8002 51.0999 83.3002 51.0999C81.3002 51.0999 78.4002 52.6999 76.8002 55.4999L72.9002 62.2999C72.6002 62.0999 72.3002 61.8999 72.1002 61.7999L71.8002 62.0999C69.1002 65.2999 65.7002 67.7999 62.0002 67.7999C59.4002 67.7999 57.8002 65.1999 60.1002 61.2999L61.2002 59.3999C61.9002 59.4999 62.6002 59.5999 63.4002 59.5999C67.4002 59.5999 72.0002 57.4999 75.0002 52.2999C76.1002 50.3999 76.5002 48.6999 76.5002 47.1999C76.5002 43.7999 74.3002 41.4999 71.5002 41.4999C69.4002 41.4999 66.9002 42.9999 65.2002 45.8999L59.3002 56.0999C57.1002 54.8999 55.9002 52.7999 55.9002 50.6999C55.9002 48.8999 56.7002 47.1999 58.3002 45.8999L57.1002 43.6999C54.4002 45.5999 53.2002 48.1999 53.2002 50.7999C53.2002 53.7999 54.9002 56.6999 58.0002 58.2999L56.9002 60.2999C54.2002 64.8999 55.8002 69.9999 61.2002 69.9999C65.4002 69.9999 68.6002 68.0999 71.2002 65.5999C70.4002 67.9999 71.6002 69.9999 74.3002 69.9999C75.8002 69.9999 77.7002 68.9999 79.6002 67.4999C79.8002 68.9999 81.0002 69.9999 82.9002 69.9999C84.7002 69.9999 86.7002 68.8999 88.6002 67.1999L87.2002 69.5999H91.0002L96.8002 59.4999C102.6 52.1999 105.2 53.1999 103.5 55.9999L98.6002 64.5999C97.0002 67.3999 98.1002 69.9999 101.2 69.9999C103.2 69.9999 105.5 68.5999 107.7 66.5999C107.2 68.6999 108.2 69.9999 110.1 69.9999C111.9 69.9999 114 68.4999 115.7 66.8999L113.6 70.4999C108.5 71.9999 105.2 74.0999 105.2 76.9999C105.2 80.5999 110.8 81.3999 113.5 76.6999L116.4 71.6999C119.6 70.6999 122.7 68.6999 126 65.4999C125.5 70.7999 132.5 71.9999 136.8 66.5999H137.6C139 66.5999 140.9 66.0999 142.6 65.0999L140.1 69.4999H143.9L149.7 59.3999C155.5 52.0999 158.1 53.0999 156.4 55.8999L151.5 64.4999C149.9 67.2999 151 69.8999 154.1 69.8999C157.2 69.8999 160.8 66.4999 164 62.8999C163.9 62.5999 163.2 61.9999 162.7 61.7999ZM68.3002 47.5999C69.4002 45.6999 70.7002 44.7999 71.7002 44.7999C73.1002 44.7999 73.8002 45.6999 73.8002 47.0999C73.8002 50.5999 69.5002 56.9999 63.6002 56.9999H62.8002L68.3002 47.5999ZM81.7002 62.3999C79.4002 65.9999 77.1002 67.6999 75.6002 67.6999C74.8002 67.6999 74.3002 67.0999 75.2002 65.5999L80.5002 56.3999C82.5002 52.8999 86.6002 53.7999 84.7002 57.1999L81.7002 62.3999ZM110.5 76.1999C109.7 77.5999 108.4 77.3999 108.4 76.3999C108.4 75.3999 109.3 74.2999 112.2 73.1999L110.5 76.1999ZM136.1 61.9999H135.9C134.7 61.9999 133.7 62.9999 133.7 64.2999C133.7 64.7999 133.8 65.1999 134.1 65.5999V65.6999C132.3 68.7999 128 68.1999 130.2 64.1999L133.1 59.1999L134.9 56.0999C137.6 51.5999 141.2 53.3999 138.9 57.2999L136.1 61.9999Z" fill="white"/>
<path d="M250.6 63.0999C250.4 62.4999 249.7 61.8999 249.2 61.7999L248.9 62.0999C247.5 63.6999 245.8 65.1999 244.3 66.1999C245.5 62.5999 245.2 56.9999 247.6 52.1999L244.8 50.6999C243.2 52.8999 239.8 57.7999 236.4 61.7999L236.1 62.0999C233.4 65.2999 230.7 67.7999 229 67.7999C228.2 67.7999 227.4 66.9999 227.4 65.1999V63.5999C230.1 63.8999 232.9 62.1999 234.7 59.0999L235.7 57.2999C239.2 51.1999 233.5 49.1999 229.6 52.7999L235 43.3999H231.2L220.4 62.1999C220.2 61.9999 219.9 61.7999 219.7 61.6999L219.4 61.9999C216.7 65.1999 213.2 67.6999 210.5 67.6999C208.2 67.6999 206.8 66.1999 208.5 63.1999L212.4 56.3999C214.6 52.5999 218.5 53.2999 216.2 57.1999L215.7 58.0999H218.8L219.3 57.1999C221.3 53.6999 219.4 51.0999 216.3 51.0999C213.2 51.0999 210.8 52.6999 209.2 55.4999L205.5 61.8999C205.4 61.8999 205.3 61.7999 205.3 61.7999L205 62.0999C202.3 65.2999 199.6 67.7999 197.9 67.7999C197.1 67.7999 196.6 67.1999 197.5 65.6999L205.6 51.4999H201.8L195.1 63.2999C192.2 65.8999 190 67.3999 189.3 67.0999C188.4 66.6999 189.3 65.2999 189.8 64.4999L197.2 51.5999H193.4L186 64.2999C185.2 64.9999 184.3 65.6999 183.6 66.2999C184.8 62.6999 184.5 57.0999 186.9 52.2999L184.1 50.7999C182.5 52.9999 173.8 64.5999 170.3 68.5999C170.6 69.0999 171.2 69.4999 171.7 69.8999C173.9 67.3999 181.1 58.0999 182.4 56.2999C180.9 60.1999 181.7 67.2999 178.1 67.2999C176.8 67.2999 176.3 65.8999 176.3 65.8999L173.9 67.0999C173.9 67.0999 174.6 70.1999 178.1 70.1999C178.5 70.1999 178.8 70.1999 179.2 70.0999H179.3C181.2 69.7999 183.1 68.9999 184.9 67.6999C184.9 69.1999 185.8 70.1999 187.4 70.1999C189.5 70.1999 191.8 68.2999 193.6 66.5999C193.2 68.5999 194.4 70.1999 196.8 70.1999C199.2 70.1999 201.8 68.2999 204.3 65.7999C204.3 68.2999 206.3 70.1999 209.4 70.1999C212.5 70.1999 215.5 68.4999 218.2 66.1999L216.1 69.8999H219.9L224.2 62.3999V65.3999C224.2 68.5999 224.8 70.2999 227.9 70.2999C231 70.2999 234.6 66.8999 237.8 63.2999C240 60.7999 241.8 58.1999 243.2 56.3999C241.7 60.2999 242.5 67.3999 238.9 67.3999C237.6 67.3999 237.1 65.9999 237.1 65.9999L234.7 67.1999C234.7 67.1999 235.4 70.2999 238.9 70.2999C239.3 70.2999 239.6 70.2999 240 70.1999H240.1C243.9 69.4999 247.8 66.3999 250.6 63.0999ZM225.4 60.0999L226.5 58.1999C230.9 52.0999 233.9 53.7999 232.5 56.0999L230.7 59.1999C229.6 61.1999 226.3 62.5999 225.4 60.0999Z" fill="white"/>
<path d="M250.5 65.6999C249.3 65.6999 248.3 66.6999 248.3 67.8999C248.3 69.0999 249.2 70.0999 250.5 70.0999C251.7 70.0999 252.7 69.1999 252.7 67.8999C252.7 66.6999 251.7 65.6999 250.5 65.6999Z" fill="white"/>
<path d="M250.7 64.1999H254.5L266.4 43.4999H262.6L250.7 64.1999Z" fill="white"/>
<path d="M6.4001 7.59995C6.4001 7.89995 6.3001 8.19994 6.2001 8.49994C6.1001 8.79994 5.9001 9.09993 5.7001 9.29993C5.5001 9.49993 5.2001 9.69993 4.9001 9.89993C4.6001 9.99993 4.2001 10.0999 3.8001 10.0999C3.3001 10.0999 2.9001 9.99993 2.5001 9.79993C2.1001 9.59993 1.7001 9.39995 1.4001 9.09995C1.1001 8.79994 1.0001 8.49995 0.800102 8.09995C0.700102 7.69994 0.600098 7.29993 0.600098 6.79993C0.600098 5.89993 0.800098 5.19993 1.1001 4.39993C1.4001 3.69993 1.8001 2.99994 2.4001 2.49994C2.6001 2.29994 2.9001 1.99993 3.2001 1.79993C3.5001 1.59993 3.8001 1.39993 4.1001 1.29993C4.4001 1.19993 4.6001 0.999933 4.8001 0.899933C5.0001 0.799933 5.1001 0.799951 5.2001 0.699951L6.6001 2.69995C6.4001 2.79995 6.1001 2.89995 5.8001 3.09995C5.5001 3.19994 5.2001 3.39995 4.9001 3.59995C4.6001 3.79995 4.4001 4.09993 4.2001 4.39993C4.0001 4.69993 3.9001 4.99993 3.9001 5.39993C4.6001 5.39993 5.1001 5.59994 5.6001 5.99994C6.2001 6.29994 6.4001 6.89995 6.4001 7.59995ZM14.3001 7.59995C14.3001 7.89995 14.2001 8.19994 14.1001 8.49994C14.0001 8.79994 13.8001 9.09993 13.6001 9.29993C13.4001 9.49993 13.1001 9.69993 12.8001 9.89993C12.5001 9.99993 12.1001 10.0999 11.7001 10.0999C11.2001 10.0999 10.8001 9.99993 10.4001 9.79993C10.0001 9.59993 9.6001 9.39995 9.3001 9.09995C9.1001 8.79994 8.9001 8.49995 8.7001 8.09995C8.6001 7.69994 8.5001 7.29993 8.5001 6.79993C8.5001 5.89993 8.7001 5.19993 9.0001 4.39993C9.3001 3.69993 9.7001 2.99994 10.3001 2.49994C10.5001 2.29994 10.8001 1.99993 11.1001 1.79993C11.4001 1.59993 11.7001 1.39993 12.0001 1.29993C12.3001 1.19993 12.5001 0.999933 12.7001 0.899933C12.9001 0.799933 13.0001 0.799951 13.1001 0.699951L14.5001 2.69995C14.3001 2.79995 14.0001 2.89995 13.7001 3.09995C13.4001 3.19994 13.1001 3.39995 12.8001 3.59995C12.5001 3.79995 12.3001 4.09993 12.1001 4.39993C11.9001 4.69993 11.8001 4.99993 11.8001 5.39993C12.5001 5.39993 13.0001 5.59994 13.5001 5.99994C14.0001 6.29994 14.3001 6.89995 14.3001 7.59995Z" fill="white"/>
<path d="M279.4 66.5C279.4 66.2 279.5 65.9 279.6 65.6C279.7 65.3 279.9 65 280.1 64.8C280.3 64.6 280.6 64.4 280.9 64.2C281.2 64.1 281.6 64 282 64C282.5 64 282.9 64.1 283.3 64.3C283.7 64.5 284.1 64.7 284.4 65C284.7 65.3 284.8 65.6 285 66C285.1 66.4 285.2 66.8 285.2 67.3C285.2 68.2 285 68.9 284.7 69.7C284.4 70.4 284 71.1 283.4 71.6C283.2 71.8 282.9 72.1 282.6 72.3C282.3 72.5 282 72.7 281.7 72.8C281.4 72.9 281.2 73.1 281 73.2C280.8 73.3 280.7 73.3 280.6 73.4L279.2 71.4C279.4 71.3 279.7 71.2 280 71C280.3 70.9 280.6 70.7 280.9 70.5C281.2 70.3 281.4 70 281.6 69.7C281.8 69.4 281.9 69.1 281.9 68.7C281.2 68.7 280.7 68.5 280.2 68.1C279.7 67.8 279.4 67.2 279.4 66.5ZM271.6 66.5C271.6 66.2 271.7 65.9 271.8 65.6C271.9 65.3 272.1 65 272.3 64.8C272.5 64.6 272.8 64.4 273.1 64.2C273.4 64.1 273.8 64 274.2 64C274.7 64 275.1 64.1 275.5 64.3C275.9 64.5 276.3 64.7 276.6 65C276.8 65.3 277 65.6 277.2 66C277.3 66.4 277.4 66.8 277.4 67.3C277.4 68.2 277.2 68.9 276.9 69.7C276.6 70.4 276.2 71.1 275.6 71.6C275.4 71.8 275.1 72.1 274.8 72.3C274.5 72.5 274.2 72.7 273.9 72.8C273.6 72.9 273.4 73.1 273.2 73.2C273 73.3 272.9 73.3 272.8 73.4L271.4 71.4C271.7 71.3 271.9 71.2 272.2 71C272.5 70.9 272.8 70.7 273.1 70.5C273.4 70.3 273.6 70 273.8 69.7C274 69.4 274.1 69.1 274.1 68.7C273.4 68.7 272.9 68.5 272.4 68.1C271.8 67.8 271.6 67.2 271.6 66.5Z" fill="white"/>
</svg>
