<svg width="189" height="45" viewBox="0 0 189 45" fill="none" xmlns="http://www.w3.org/2000/svg">
<path d="M28.2 0H35.9L34.7 44.9H20.2L18.2 26.4L16.2 44.9H1.60001L0.5 0H8.10001L8.7 37.2H9.5L14.4 0H22L26.9 37.2H27.7L28.2 0Z" fill="#81B3D3"/>
<path d="M60 37.2V45H39.1V0H60V7.7H46.7V18.5H57.3V26.2H46.7V37.1H60V37.2Z" fill="#81B3D3"/>
<path d="M81.4 37.2V45H63.1V0H70.7V37.2H81.4Z" fill="#81B3D3"/>
<path d="M97.6 28.4L105.3 26.6V40.2C105.3 42.8 103.1 44.9 100.6 44.9H89.1C86.5 44.9 84.4 42.7 84.4 40.2V4.7C84.4 2.1 86.5 0 89.1 0H100.6C103.1 0 105.3 2.1 105.3 4.7V13.8L97.6 15.6V7.6H92.1V37.1H97.6V28.4Z" fill="#81B3D3"/>
<path d="M126.1 0C128.6 0 130.8 2.1 130.8 4.7V40.1C130.8 42.7 128.6 44.8 126.1 44.8H114.6C112 44.8 109.9 42.6 109.9 40.1V4.7C109.9 2.1 112 0 114.6 0H126.1ZM123.1 7.7H117.6V37.2H123.1V7.7Z" fill="#81B3D3"/>
<path d="M155.8 0H163.4V44.9H155.8V22.8L152.7 34.2H145.2L142.2 22.8V44.9H134.6V0H142.2L149 21.7L155.8 0Z" fill="#81B3D3"/>
<path d="M188.1 37.2V45H167.2V0H188.1V7.7H174.8V18.5H185.4V26.2H174.8V37.1H188.1V37.2Z" fill="#81B3D3"/>
</svg>
